# xmcd
# 
# Track frame offsets:
#     150
#     16840
#     29285
#     41610
#     55275
#     64360
#     81157
#     95100
#     107925
#     120570
#     134675
#     147540
#     159535
#     171760
#     185022
#     196805
#     213150
#     226800
#     239865
#     253135
#     264545
#     277107
#     288397
#     302917
# 
# Disc length: 4183
# 
# Revision: 4
# Processed by: cddbd v1.5.2PL0 Copyright (c) Steve Scherf et al.
# Submitted via: fre:ac v1.0.31
# 
DISCID=76105518
DTITLE=Various Artist - The Very Best Of
DYEAR=2001
DGENRE=Folk
TTITLE0=Nancy Sinatra With Lee Hazlewood - Summer Wine
TTITLE1=Nancy Sinatra - The Last Of The Secret Agents
TTITLE2=Nancy Sinatra - These Boots Are Made For Walking
TTITLE3=Nancy Sinatra With Lee Hazlewood - Lady Bird
TTITLE4=Nancy Sinatra - It Ain't Me Babe
TTITLE5=Nancy Sinatra With Lee Hazlewood - Sand
TTITLE6=Nancy Sinatra - So Long, Babe
TTITLE7=Nancy Sinatra - Wishin' and Hopin'
TTITLE8=Nancy Sinatra - Call Me
TTITLE9=Nancy Sinatra With Lee Hazlewood - Storybook Children
TTITLE10=Nancy Sinatra - The Shadow of Your Smile
TTITLE11=Nancy Sinatra With Frank Sinatra - Somethin' Stupid
TTITLE12=Nancy Sinatra With Dean Martin - Things
TTITLE13=Nancy Sinatra - You Only Live Twice
TTITLE14=Nancy Sinatra With Lee Hazlewood - Sundown, Sundown
TTITLE15=Nancy Sinatra With Lee Hazlewood - Some Velvet Morning
TTITLE16=Nancy Sinatra - Friday's Child
TTITLE17=Nancy Sinatra - Lightning's Girl
TTITLE18=Nancy Sinatra - Sorry 'bout That
TTITLE19=Nancy Sinatra - How Does That Grab You, Darlin'?
TTITLE20=Nancy Sinatra With Lee Hazlewood - Jackson
TTITLE21=Nancy Sinatra - 100 Years
TTITLE22=Nancy Sinatra With Lee Hazlewood - My Elusive Dreams
TTITLE23=Nancy Sinatra - Sugar Town
EXTD=
EXTT0=
EXTT1=
EXTT2=
EXTT3=
EXTT4=
EXTT5=
EXTT6=
EXTT7=
EXTT8=
EXTT9=
EXTT10=
EXTT11=
EXTT12=
EXTT13=
EXTT14=
EXTT15=
EXTT16=
EXTT17=
EXTT18=
EXTT19=
EXTT20=
EXTT21=
EXTT22=
EXTT23=
PLAYORDER=
